<?xml version="1.0" encoding="UTF-8" standalone="no"?>
<!-- Created with Inkscape (http://www.inkscape.org/) -->

<svg
   width="210mm"
   height="297mm"
   viewBox="0 0 210 297"
   version="1.1"
   id="svg1"
   xmlns="http://www.w3.org/2000/svg"
   xmlns:svg="http://www.w3.org/2000/svg">
  <defs
     id="defs1" />
  <g
     id="layer1">
    <path
       style="fill:#000000;stroke-width:0.264583"
       d="m 144.70158,94.417781 c 0,0 -7.23508,-27.131547 -23.15225,-20.619974 -15.91718,6.511571 -63.668697,42.686963 -60.051158,56.071863 3.61754,13.3849 37.260657,15.91717 55.348358,14.83191 18.0877,-1.08526 46.85999,-21.85572 46.85999,-21.85572 0,0 -55.18033,21.49397 -63.13892,14.25889 -7.958587,-7.23508 -38.345919,-4.34105 -17.725946,-16.64068 20.619976,-12.29964 37.984166,-36.175399 45.580996,-28.216812 7.59684,7.958592 10.49087,6.149817 20.61998,21.343482 10.12911,15.19367 -4.34105,-19.172959 -4.34105,-19.172959 z"
       id="path1" />
    <path
       style="fill:#000000;stroke-width:0.264583"
       d="m 113.22899,106.71742 c 0,19.53471 7.23508,26.04628 7.23508,26.04628 0,0 6.72094,-5.46075 8.02065,-16.38488 0.85562,-7.19164 0.87746,-10.30226 -1.87084,-21.237531 -4.37855,-17.42192 -3.97929,-4.341047 -3.97929,-4.341047 0,0 -6.87332,3.255785 -9.4056,15.917178 z"
       id="path2" />
  </g>
</svg>
